STARTFONT 2.1
COMMENT $Id$
COMMENT 
COMMENT Copyright (C) Centre d'Etudes de la Navigation Aérienne
COMMENT 
COMMENT This software is free software; you can redistribute it and/or
COMMENT modify it under the terms of the GNU Lesser General Public License
COMMENT as published by the Free Software Foundation: either version 2
COMMENT of the License, or (at your option) any later version.
COMMENT 
COMMENT This software is distributed in the hope that it will be useful,
COMMENT but WITHOUT ANY WARRANTY; without even the implied warranty of
COMMENT MERCHANTABILITY or FITNESS FOR A PARTICULAR PURPOSE.  See the
COMMENT GNU Lesser General Public License for more details.
COMMENT 
COMMENT You should have received a copy of the GNU Lesser General Public License
COMMENT along with this software; if not, write to the Free Software
COMMENT Foundation, Inc., 59 Temple Place - Suite 330, Boston, MA  02111-1307, USA.
COMMENT Please refer to http://www.gnu.org/copyleft/gpl.html
COMMENT
COMMENT to contact us:
COMMENT    email to:  pii-contact@cena.dgac.fr
COMMENT or write to: CENA, 7 avenue Edouard Belin, 31400 Toulouse, France 
COMMENT $Id$
COMMENT 
FONT -cena-orly label-medium-o-normal-sans-14-140-75-75-m-82-fontspecific-1
SIZE 14 75 75
FONTBOUNDINGBOX 19 16 -3 -3
STARTPROPERTIES 15
FOUNDRY "CENA"
FAMILY_NAME "Orly Label"
COPYRIGHT "Copyright 1999 CENA/J.L.Vinot"
PIXEL_SIZE 14
POINT_SIZE 140
RESOLUTION_X 75
RESOLUTION_Y 75
SPACING "p"
WEIGHT_NAME "medium"
SLANT "o"
SETWIDTH_NAME "normal"
_XMBDFED_INFO "Edited with xmbdfed 3.3."
DEFAULT_CHAR 0
FONT_ASCENT 13
FONT_DESCENT 3
ENDPROPERTIES
CHARS 132
STARTCHAR char32
ENCODING 32
SWIDTH 342 0
DWIDTH 5 0
BBX 0 0 0 0
BITMAP
ENDCHAR
STARTCHAR char33
ENCODING 33
SWIDTH 274 0
DWIDTH 4 0
BBX 4 10 1 0
BITMAP
30
30
30
30
60
60
60
00
C0
C0
ENDCHAR
STARTCHAR char34
ENCODING 34
SWIDTH 480 0
DWIDTH 7 0
BBX 5 3 1 7
BITMAP
D8
D8
90
ENDCHAR
STARTCHAR char35
ENCODING 35
SWIDTH 685 0
DWIDTH 10 0
BBX 12 11 0 -1
BITMAP
0120
06C0
0480
1FE0
0480
1B00
1200
7F80
2400
6C00
4800
ENDCHAR
STARTCHAR char37
ENCODING 37
SWIDTH 822 0
DWIDTH 12 0
BBX 11 10 1 0
BITMAP
3080
4980
8900
9200
6600
04C0
0920
1A20
1240
2180
ENDCHAR
STARTCHAR char39
ENCODING 39
SWIDTH 274 0
DWIDTH 4 0
BBX 2 3 1 7
BITMAP
C0
C0
80
ENDCHAR
STARTCHAR char40
ENCODING 40
SWIDTH 205 0
DWIDTH 3 0
BBX 5 11 1 -1
BITMAP
08
10
20
60
40
C0
C0
C0
80
C0
40
ENDCHAR
STARTCHAR char41
ENCODING 41
SWIDTH 274 0
DWIDTH 4 0
BBX 4 11 0 -1
BITMAP
20
10
10
10
10
10
30
20
60
C0
80
ENDCHAR
STARTCHAR char42
ENCODING 42
SWIDTH 617 0
DWIDTH 9 0
BBX 8 7 0 3
BITMAP
11
16
1C
FF
3C
64
84
ENDCHAR
STARTCHAR char43
ENCODING 43
SWIDTH 617 0
DWIDTH 9 0
BBX 7 7 2 1
BITMAP
18
18
18
FE
30
30
30
ENDCHAR
STARTCHAR char44
ENCODING 44
SWIDTH 274 0
DWIDTH 4 0
BBX 3 3 0 -1
BITMAP
60
40
80
ENDCHAR
STARTCHAR char45
ENCODING 45
SWIDTH 480 0
DWIDTH 7 0
BBX 5 1 1 4
BITMAP
F8
ENDCHAR
STARTCHAR char46
ENCODING 46
SWIDTH 274 0
DWIDTH 4 0
BBX 2 2 1 0
BITMAP
C0
C0
ENDCHAR
STARTCHAR char47
ENCODING 47
SWIDTH 342 0
DWIDTH 5 0
BBX 7 10 0 0
BITMAP
02
02
04
04
10
10
20
40
80
80
ENDCHAR
STARTCHAR char48
ENCODING 48
SWIDTH 685 0
DWIDTH 10 0
BBX 9 10 1 0
BITMAP
0E00
3B00
6180
6180
CD80
D980
C300
C300
EE00
3800
ENDCHAR
STARTCHAR char49
ENCODING 49
SWIDTH 617 0
DWIDTH 9 0
BBX 6 10 2 0
BITMAP
1C
3C
6C
CC
18
18
18
30
30
30
ENDCHAR
STARTCHAR char50
ENCODING 50
SWIDTH 617 0
DWIDTH 9 0
BBX 9 10 0 0
BITMAP
1F00
3180
2180
0180
0300
0E00
3800
6000
C000
FE00
ENDCHAR
STARTCHAR char51
ENCODING 51
SWIDTH 617 0
DWIDTH 9 0
BBX 10 10 -1 0
BITMAP
0F80
18C0
00C0
0380
0E00
0300
0180
C180
6380
3E00
ENDCHAR
STARTCHAR char52
ENCODING 52
SWIDTH 685 0
DWIDTH 10 0
BBX 9 10 0 0
BITMAP
0180
0380
0780
0D80
1B00
3300
6300
FF80
0600
0600
ENDCHAR
STARTCHAR char53
ENCODING 53
SWIDTH 617 0
DWIDTH 9 0
BBX 9 10 0 0
BITMAP
3F80
3000
2000
7E00
6300
0300
0300
0300
C600
7C00
ENDCHAR
STARTCHAR char54
ENCODING 54
SWIDTH 685 0
DWIDTH 10 0
BBX 8 10 1 0
BITMAP
06
0C
18
3C
66
C3
C3
C3
C6
78
ENDCHAR
STARTCHAR char55
ENCODING 55
SWIDTH 617 0
DWIDTH 9 0
BBX 8 10 2 0
BITMAP
FF
83
06
0C
18
30
60
60
C0
C0
ENDCHAR
STARTCHAR char56
ENCODING 56
SWIDTH 685 0
DWIDTH 10 0
BBX 9 10 0 0
BITMAP
1F00
3180
3180
3B00
1E00
7300
C180
C180
C300
7C00
ENDCHAR
STARTCHAR char57
ENCODING 57
SWIDTH 685 0
DWIDTH 10 0
BBX 8 10 1 0
BITMAP
1E
63
C3
C3
C3
66
3C
18
30
60
ENDCHAR
STARTCHAR char58
ENCODING 58
SWIDTH 342 0
DWIDTH 5 0
BBX 4 7 1 0
BITMAP
30
30
00
00
00
C0
C0
ENDCHAR
STARTCHAR char59
ENCODING 59
SWIDTH 342 0
DWIDTH 5 0
BBX 5 8 0 -1
BITMAP
18
18
00
00
00
60
40
80
ENDCHAR
STARTCHAR char60
ENCODING 60
SWIDTH 411 0
DWIDTH 6 0
BBX 7 9 1 0
BITMAP
06
0C
30
60
C0
60
20
30
18
ENDCHAR
STARTCHAR char61
ENCODING 61
SWIDTH 685 0
DWIDTH 10 0
BBX 7 4 1 2
BITMAP
7E
00
00
FC
ENDCHAR
STARTCHAR char62
ENCODING 62
SWIDTH 411 0
DWIDTH 6 0
BBX 7 9 1 0
BITMAP
30
18
08
0C
06
0C
38
60
C0
ENDCHAR
STARTCHAR char63
ENCODING 63
SWIDTH 480 0
DWIDTH 7 0
BBX 8 10 0 0
BITMAP
1E
33
03
03
06
0C
18
00
30
30
ENDCHAR
STARTCHAR char64
ENCODING 64
SWIDTH 1028 0
DWIDTH 15 0
BBX 13 12 1 -2
BITMAP
07E0
0C30
3018
63D8
6CD8
D8D8
D9B0
DBB0
CDE0
C000
6000
3F00
ENDCHAR
STARTCHAR char65
ENCODING 65
SWIDTH 685 0
DWIDTH 10 0
BBX 9 10 -1 0
BITMAP
0100
0380
0780
0D80
0980
1980
3180
7F80
4180
C180
ENDCHAR
STARTCHAR char66
ENCODING 66
SWIDTH 685 0
DWIDTH 10 0
BBX 9 10 0 0
BITMAP
3F00
3180
3180
2380
7E00
6300
6180
C180
C300
FE00
ENDCHAR
STARTCHAR char67
ENCODING 67
SWIDTH 685 0
DWIDTH 10 0
BBX 9 10 1 0
BITMAP
0F00
3980
6000
6000
C000
C000
C000
C000
E600
3C00
ENDCHAR
STARTCHAR char68
ENCODING 68
SWIDTH 685 0
DWIDTH 10 0
BBX 9 10 0 0
BITMAP
3E00
3300
3180
2180
6180
6180
6300
C300
CE00
F800
ENDCHAR
STARTCHAR char69
ENCODING 69
SWIDTH 617 0
DWIDTH 9 0
BBX 9 10 0 0
BITMAP
3F80
3000
3000
2000
7E00
6000
6000
C000
C000
FE00
ENDCHAR
STARTCHAR char70
ENCODING 70
SWIDTH 548 0
DWIDTH 8 0
BBX 9 10 0 0
BITMAP
3F80
3000
3000
2000
7E00
6000
6000
C000
C000
C000
ENDCHAR
STARTCHAR char71
ENCODING 71
SWIDTH 685 0
DWIDTH 10 0
BBX 9 10 1 0
BITMAP
0F00
3980
6000
6000
C000
CF00
C300
C300
E600
3E00
ENDCHAR
STARTCHAR char72
ENCODING 72
SWIDTH 685 0
DWIDTH 10 0
BBX 10 10 0 0
BITMAP
30C0
30C0
30C0
2080
7F80
6180
6180
C300
C300
C300
ENDCHAR
STARTCHAR char73
ENCODING 73
SWIDTH 411 0
DWIDTH 6 0
BBX 4 10 1 0
BITMAP
30
30
30
60
60
60
60
C0
C0
C0
ENDCHAR
STARTCHAR char74
ENCODING 74
SWIDTH 548 0
DWIDTH 8 0
BBX 9 10 -1 0
BITMAP
0180
0180
0180
0180
0300
0300
0300
C600
6600
3C00
ENDCHAR
STARTCHAR char75
ENCODING 75
SWIDTH 617 0
DWIDTH 9 0
BBX 9 10 0 0
BITMAP
3180
3300
3600
3C00
7800
7800
6C00
C400
C600
C300
ENDCHAR
STARTCHAR char76
ENCODING 76
SWIDTH 548 0
DWIDTH 8 0
BBX 6 10 0 0
BITMAP
30
30
30
30
60
60
60
C0
C0
FC
ENDCHAR
STARTCHAR char77
ENCODING 77
SWIDTH 754 0
DWIDTH 11 0
BBX 11 10 0 0
BITMAP
3060
3060
30E0
30E0
7BC0
6AC0
6EC0
C980
C980
C180
ENDCHAR
STARTCHAR char78
ENCODING 78
SWIDTH 685 0
DWIDTH 10 0
BBX 10 10 0 0
BITMAP
30C0
30C0
38C0
38C0
6980
6D80
6780
C700
C300
C300
ENDCHAR
STARTCHAR char79
ENCODING 79
SWIDTH 685 0
DWIDTH 10 0
BBX 9 10 1 0
BITMAP
0E00
3B00
6180
6180
C180
C180
C300
C300
EE00
3800
ENDCHAR
STARTCHAR char80
ENCODING 80
SWIDTH 617 0
DWIDTH 9 0
BBX 9 10 0 0
BITMAP
3F00
3180
3180
3180
6300
7E00
6000
C000
C000
C000
ENDCHAR
STARTCHAR char81
ENCODING 81
SWIDTH 685 0
DWIDTH 10 0
BBX 9 11 1 -1
BITMAP
0E00
3B00
6180
6180
C180
D180
DB00
CF00
EC00
3600
0200
ENDCHAR
STARTCHAR char82
ENCODING 82
SWIDTH 617 0
DWIDTH 9 0
BBX 9 10 0 0
BITMAP
3F00
3180
3180
2180
6700
7C00
7800
CC00
C600
C300
ENDCHAR
STARTCHAR char83
ENCODING 83
SWIDTH 548 0
DWIDTH 8 0
BBX 10 10 -1 0
BITMAP
0F80
18C0
1800
1C00
0E00
0700
0300
C300
6300
3E00
ENDCHAR
STARTCHAR char84
ENCODING 84
SWIDTH 617 0
DWIDTH 9 0
BBX 8 10 2 0
BITMAP
FF
18
18
18
30
30
30
60
60
60
ENDCHAR
STARTCHAR char85
ENCODING 85
SWIDTH 685 0
DWIDTH 10 0
BBX 10 10 0 0
BITMAP
30C0
30C0
30C0
60C0
6180
6180
C180
C300
6600
3C00
ENDCHAR
STARTCHAR char86
ENCODING 86
SWIDTH 685 0
DWIDTH 10 0
BBX 8 10 2 0
BITMAP
C1
C1
C3
C6
C4
6C
68
70
70
60
ENDCHAR
STARTCHAR char87
ENCODING 87
SWIDTH 891 0
DWIDTH 13 0
BBX 12 10 1 0
BITMAP
C010
C610
C630
C620
CE60
6F40
7BC0
7380
6300
6300
ENDCHAR
STARTCHAR char88
ENCODING 88
SWIDTH 685 0
DWIDTH 10 0
BBX 10 10 0 0
BITMAP
30C0
3180
1B00
1E00
0E00
1C00
3600
6600
4300
C300
ENDCHAR
STARTCHAR char89
ENCODING 89
SWIDTH 617 0
DWIDTH 9 0
BBX 8 10 1 0
BITMAP
C1
C3
66
6C
38
30
30
60
60
60
ENDCHAR
STARTCHAR char90
ENCODING 90
SWIDTH 617 0
DWIDTH 9 0
BBX 10 10 0 0
BITMAP
3F80
0180
0300
0600
0C00
1800
3000
6000
C000
FF00
ENDCHAR
STARTCHAR char91
ENCODING 91
SWIDTH 274 0
DWIDTH 4 0
BBX 6 11 0 -1
BITMAP
3C
30
30
20
60
60
60
C0
C0
C0
F0
ENDCHAR
STARTCHAR char92
ENCODING 92
SWIDTH 68 0
DWIDTH 1 0
BBX 3 10 2 0
BITMAP
80
80
80
40
40
40
20
20
20
20
ENDCHAR
STARTCHAR char93
ENCODING 93
SWIDTH 342 0
DWIDTH 5 0
BBX 6 11 -1 -1
BITMAP
1C
0C
0C
0C
18
18
18
30
30
30
F0
ENDCHAR
STARTCHAR char94
ENCODING 94
SWIDTH 411 0
DWIDTH 6 0
BBX 5 4 1 7
BITMAP
10
30
58
88
ENDCHAR
STARTCHAR char95
ENCODING 95
SWIDTH 480 0
DWIDTH 7 0
BBX 7 1 0 -3
BITMAP
FE
ENDCHAR
STARTCHAR char96
ENCODING 96
SWIDTH 548 0
DWIDTH 8 0
BBX 3 2 2 7
BITMAP
C0
60
ENDCHAR
STARTCHAR char97
ENCODING 97
SWIDTH 617 0
DWIDTH 9 0
BBX 8 7 0 0
BITMAP
1F
73
63
C6
C6
CE
76
ENDCHAR
STARTCHAR char98
ENCODING 98
SWIDTH 617 0
DWIDTH 9 0
BBX 8 10 0 0
BITMAP
30
30
30
37
7B
63
63
C6
CE
F8
ENDCHAR
STARTCHAR char99
ENCODING 99
SWIDTH 617 0
DWIDTH 9 0
BBX 8 7 0 0
BITMAP
1F
73
60
C0
C0
C6
7C
ENDCHAR
STARTCHAR char100
ENCODING 100
SWIDTH 617 0
DWIDTH 9 0
BBX 9 10 0 0
BITMAP
0180
0180
0180
1D80
7700
6300
C300
C600
C600
7E00
ENDCHAR
STARTCHAR char101
ENCODING 101
SWIDTH 617 0
DWIDTH 9 0
BBX 8 7 0 0
BITMAP
1E
73
63
FF
C0
C6
7C
ENDCHAR
STARTCHAR char102
ENCODING 102
SWIDTH 411 0
DWIDTH 6 0
BBX 6 10 1 0
BITMAP
1C
30
30
7C
60
60
60
C0
C0
C0
ENDCHAR
STARTCHAR char103
ENCODING 103
SWIDTH 617 0
DWIDTH 9 0
BBX 9 10 0 -3
BITMAP
0F80
3980
3180
6180
6300
6700
3B00
0600
C600
7C00
ENDCHAR
STARTCHAR char104
ENCODING 104
SWIDTH 617 0
DWIDTH 9 0
BBX 8 10 0 0
BITMAP
30
30
30
36
7B
63
63
C6
C6
C6
ENDCHAR
STARTCHAR char105
ENCODING 105
SWIDTH 342 0
DWIDTH 5 0
BBX 4 10 1 0
BITMAP
30
30
00
30
60
60
60
C0
C0
C0
ENDCHAR
STARTCHAR char106
ENCODING 106
SWIDTH 411 0
DWIDTH 6 0
BBX 7 13 -1 -3
BITMAP
06
06
00
0C
0C
0C
0C
18
18
18
30
30
E0
ENDCHAR
STARTCHAR char107
ENCODING 107
SWIDTH 617 0
DWIDTH 9 0
BBX 8 10 0 0
BITMAP
30
30
30
23
6E
78
70
D8
CC
C6
ENDCHAR
STARTCHAR char108
ENCODING 108
SWIDTH 342 0
DWIDTH 5 0
BBX 4 10 1 0
BITMAP
30
30
30
30
60
60
60
C0
C0
C0
ENDCHAR
STARTCHAR char109
ENCODING 109
SWIDTH 891 0
DWIDTH 13 0
BBX 13 7 0 0
BITMAP
6E70
7398
6318
6318
C630
C630
C630
ENDCHAR
STARTCHAR char110
ENCODING 110
SWIDTH 617 0
DWIDTH 9 0
BBX 8 7 0 0
BITMAP
6E
73
63
63
C6
C6
C6
ENDCHAR
STARTCHAR char111
ENCODING 111
SWIDTH 617 0
DWIDTH 9 0
BBX 8 7 0 0
BITMAP
1E
73
63
C3
C3
C6
7C
ENDCHAR
STARTCHAR char112
ENCODING 112
SWIDTH 617 0
DWIDTH 9 0
BBX 9 10 0 -3
BITMAP
3F00
3180
3180
3180
6180
7300
6E00
C000
C000
C000
ENDCHAR
STARTCHAR char113
ENCODING 113
SWIDTH 617 0
DWIDTH 9 0
BBX 8 10 1 -3
BITMAP
1F
73
63
C3
C6
CE
76
0C
0C
0C
ENDCHAR
STARTCHAR char114
ENCODING 114
SWIDTH 411 0
DWIDTH 6 0
BBX 7 7 0 0
BITMAP
66
7C
70
60
C0
C0
C0
ENDCHAR
STARTCHAR char115
ENCODING 115
SWIDTH 617 0
DWIDTH 9 0
BBX 8 7 0 0
BITMAP
3E
63
70
3C
0E
C6
7C
ENDCHAR
STARTCHAR char116
ENCODING 116
SWIDTH 411 0
DWIDTH 6 0
BBX 6 9 1 0
BITMAP
10
30
FC
60
60
C0
C0
C0
70
ENDCHAR
STARTCHAR char117
ENCODING 117
SWIDTH 617 0
DWIDTH 9 0
BBX 8 7 0 0
BITMAP
63
63
63
C6
C6
CE
76
ENDCHAR
STARTCHAR char118
ENCODING 118
SWIDTH 617 0
DWIDTH 9 0
BBX 8 7 2 0
BITMAP
C3
C6
CC
D8
F0
E0
40
ENDCHAR
STARTCHAR char119
ENCODING 119
SWIDTH 754 0
DWIDTH 11 0
BBX 10 7 1 0
BITMAP
C440
CCC0
CC80
DD80
EF00
EE00
4400
ENDCHAR
STARTCHAR char120
ENCODING 120
SWIDTH 617 0
DWIDTH 9 0
BBX 9 7 0 0
BITMAP
3180
3300
1E00
1C00
3C00
6600
C600
ENDCHAR
STARTCHAR char121
ENCODING 121
SWIDTH 617 0
DWIDTH 9 0
BBX 8 10 1 -3
BITMAP
C1
C3
C2
64
6C
78
30
60
C0
C0
ENDCHAR
STARTCHAR char122
ENCODING 122
SWIDTH 617 0
DWIDTH 9 0
BBX 9 7 0 0
BITMAP
3F80
0300
0600
1C00
3000
6000
FE00
ENDCHAR
STARTCHAR char123
ENCODING 123
SWIDTH 480 0
DWIDTH 7 0
BBX 7 13 2 -3
BITMAP
0E
18
18
30
30
60
C0
40
60
C0
C0
C0
70
ENDCHAR
STARTCHAR char124
ENCODING 124
SWIDTH 480 0
DWIDTH 7 0
BBX 4 13 3 -3
BITMAP
10
10
10
20
20
20
20
40
40
40
80
80
80
ENDCHAR
STARTCHAR char125
ENCODING 125
SWIDTH 480 0
DWIDTH 7 0
BBX 8 13 0 -3
BITMAP
1C
06
06
0C
0C
06
03
0C
18
18
30
30
E0
ENDCHAR
STARTCHAR char126
ENCODING 126
SWIDTH 891 0
DWIDTH 13 0
BBX 8 2 2 2
BITMAP
71
8E
ENDCHAR
STARTCHAR char187
ENCODING 187
SWIDTH 480 0
DWIDTH 7 0
BBX 7 4 0 1
BITMAP
6C
6C
6C
D8
ENDCHAR
STARTCHAR char188
ENCODING 188
SWIDTH 617 0
DWIDTH 9 0
BBX 9 10 2 0
BITMAP
2100
E200
2600
2400
4880
5980
1280
2500
6F80
4100
ENDCHAR
STARTCHAR char189
ENCODING 189
SWIDTH 617 0
DWIDTH 9 0
BBX 10 10 2 0
BITMAP
2100
E200
2600
2400
4980
5A40
1040
2180
6200
4780
ENDCHAR
STARTCHAR char190
ENCODING 190
SWIDTH 617 0
DWIDTH 9 0
BBX 11 10 1 0
BITMAP
3840
4880
1180
0900
8A20
7660
04A0
0940
1BE0
1040
ENDCHAR
STARTCHAR char192
ENCODING 192
SWIDTH 685 0
DWIDTH 10 0
BBX 9 13 -1 0
BITMAP
0300
0180
0000
0100
0380
0780
0D80
0980
1980
3180
7F80
4180
C180
ENDCHAR
STARTCHAR char194
ENCODING 194
SWIDTH 685 0
DWIDTH 10 0
BBX 11 13 -1 0
BITMAP
01C0
0360
0000
0100
0380
0780
0D80
0980
1980
3180
7F80
4180
C180
ENDCHAR
STARTCHAR char199
ENCODING 199
SWIDTH 685 0
DWIDTH 10 0
BBX 9 13 1 -3
BITMAP
0F00
3980
6000
6000
C000
C000
C000
C000
E600
3C00
0000
6000
C000
ENDCHAR
STARTCHAR char200
ENCODING 200
SWIDTH 617 0
DWIDTH 9 0
BBX 9 13 0 0
BITMAP
0600
0300
0000
3F80
3000
3000
2000
7E00
6000
6000
C000
C000
FE00
ENDCHAR
STARTCHAR char201
ENCODING 201
SWIDTH 617 0
DWIDTH 9 0
BBX 9 13 0 0
BITMAP
0180
0300
0000
3F80
3000
3000
2000
7E00
6000
6000
C000
C000
FE00
ENDCHAR
STARTCHAR char202
ENCODING 202
SWIDTH 617 0
DWIDTH 9 0
BBX 9 13 0 0
BITMAP
0700
0D80
0000
3F80
3000
3000
2000
7E00
6000
6000
C000
C000
FE00
ENDCHAR
STARTCHAR char203
ENCODING 203
SWIDTH 617 0
DWIDTH 9 0
BBX 9 13 0 0
BITMAP
0D80
0D80
0000
3F80
3000
3000
2000
7E00
6000
6000
C000
C000
FE00
ENDCHAR
STARTCHAR char206
ENCODING 206
SWIDTH 342 0
DWIDTH 5 0
BBX 7 13 1 0
BITMAP
1C
36
00
10
30
30
30
60
60
60
C0
C0
C0
ENDCHAR
STARTCHAR char207
ENCODING 207
SWIDTH 342 0
DWIDTH 5 0
BBX 7 13 1 0
BITMAP
36
36
00
10
30
30
30
60
60
60
C0
C0
C0
ENDCHAR
STARTCHAR char212
ENCODING 212
SWIDTH 685 0
DWIDTH 10 0
BBX 9 13 1 0
BITMAP
0700
0D80
0000
0E00
3B00
6180
6180
C180
C180
C300
C300
EE00
3800
ENDCHAR
STARTCHAR char217
ENCODING 217
SWIDTH 685 0
DWIDTH 10 0
BBX 10 13 0 0
BITMAP
0600
0300
0000
30C0
30C0
30C0
60C0
6180
6180
C180
C300
6600
3C00
ENDCHAR
STARTCHAR char219
ENCODING 219
SWIDTH 685 0
DWIDTH 10 0
BBX 10 13 0 0
BITMAP
0700
0D80
0000
30C0
30C0
30C0
60C0
6180
6180
C180
C300
6600
3C00
ENDCHAR
STARTCHAR char220
ENCODING 220
SWIDTH 685 0
DWIDTH 10 0
BBX 10 13 0 0
BITMAP
0D80
0D80
0000
30C0
30C0
30C0
60C0
6180
6180
C180
C300
6600
3C00
ENDCHAR
STARTCHAR char224
ENCODING 224
SWIDTH 617 0
DWIDTH 9 0
BBX 8 10 0 0
BITMAP
0C
06
00
1F
73
63
C3
C6
CE
76
ENDCHAR
STARTCHAR char226
ENCODING 226
SWIDTH 617 0
DWIDTH 9 0
BBX 8 10 0 0
BITMAP
0E
1B
00
1F
73
63
C3
C6
CE
76
ENDCHAR
STARTCHAR char231
ENCODING 231
SWIDTH 617 0
DWIDTH 9 0
BBX 8 10 1 -3
BITMAP
1E
73
60
C0
C0
C6
7C
00
60
C0
ENDCHAR
STARTCHAR char232
ENCODING 232
SWIDTH 617 0
DWIDTH 9 0
BBX 8 10 0 0
BITMAP
0C
06
00
1F
73
63
FF
C0
C6
7C
ENDCHAR
STARTCHAR char233
ENCODING 233
SWIDTH 617 0
DWIDTH 9 0
BBX 8 10 0 0
BITMAP
03
06
00
1F
73
63
FF
C0
C6
7C
ENDCHAR
STARTCHAR char234
ENCODING 234
SWIDTH 617 0
DWIDTH 9 0
BBX 8 10 0 0
BITMAP
0E
1B
00
1F
73
63
FF
C0
C6
7C
ENDCHAR
STARTCHAR char235
ENCODING 235
SWIDTH 617 0
DWIDTH 9 0
BBX 8 10 0 0
BITMAP
1B
1B
00
1F
73
63
FF
C0
C6
7C
ENDCHAR
STARTCHAR char238
ENCODING 238
SWIDTH 342 0
DWIDTH 5 0
BBX 7 10 -1 0
BITMAP
1C
36
00
0C
18
18
18
30
30
30
ENDCHAR
STARTCHAR char239
ENCODING 239
SWIDTH 342 0
DWIDTH 5 0
BBX 7 10 -1 0
BITMAP
36
36
00
0C
18
18
18
30
30
30
ENDCHAR
STARTCHAR char244
ENCODING 244
SWIDTH 617 0
DWIDTH 9 0
BBX 8 10 0 0
BITMAP
0E
1B
00
1E
73
63
C3
C3
C6
7C
ENDCHAR
STARTCHAR char246
ENCODING 246
SWIDTH 617 0
DWIDTH 9 0
BBX 8 10 0 0
BITMAP
1B
1B
00
1E
73
63
C3
C3
C6
7C
ENDCHAR
STARTCHAR char249
ENCODING 249
SWIDTH 617 0
DWIDTH 9 0
BBX 8 10 0 0
BITMAP
0C
06
00
63
63
63
C6
C6
CE
76
ENDCHAR
STARTCHAR char250
ENCODING 250
SWIDTH 617 0
DWIDTH 9 0
BBX 8 10 0 0
BITMAP
06
0C
00
63
63
63
C6
C6
CE
76
ENDCHAR
STARTCHAR char251
ENCODING 251
SWIDTH 617 0
DWIDTH 9 0
BBX 8 10 0 0
BITMAP
0E
1B
00
63
63
63
C6
C6
CE
76
ENDCHAR
STARTCHAR char252
ENCODING 252
SWIDTH 617 0
DWIDTH 9 0
BBX 8 10 0 0
BITMAP
1B
1B
00
63
63
63
C6
C6
CE
76
ENDCHAR
STARTCHAR char8216
ENCODING 8216
SWIDTH 274 0
DWIDTH 4 0
BBX 3 3 0 7
BITMAP
20
40
C0
ENDCHAR
STARTCHAR char8217
ENCODING 8217
SWIDTH 274 0
DWIDTH 4 0
BBX 3 3 0 7
BITMAP
60
40
80
ENDCHAR
STARTCHAR char8218
ENCODING 8218
SWIDTH 274 0
DWIDTH 4 0
BBX 3 3 0 -1
BITMAP
60
40
80
ENDCHAR
STARTCHAR char8220
ENCODING 8220
SWIDTH 480 0
DWIDTH 7 0
BBX 6 3 0 7
BITMAP
24
48
D8
ENDCHAR
STARTCHAR char8221
ENCODING 8221
SWIDTH 480 0
DWIDTH 7 0
BBX 6 3 0 7
BITMAP
6C
48
90
ENDCHAR
STARTCHAR char8240
ENCODING 8240
SWIDTH 1028 0
DWIDTH 15 0
BBX 16 10 0 0
BITMAP
1840
24C0
2480
2580
3200
06CC
0532
1A64
1264
3198
ENDCHAR
STARTCHAR char8725
ENCODING 8725
SWIDTH 68 0
DWIDTH 1 0
BBX 8 9 -3 0
BITMAP
03
02
06
08
18
10
60
40
C0
ENDCHAR
ENDFONT
